<svg xmlns="http://www.w3.org/2000/svg" viewBox="0 0 147.4 177.2">
  <path fill="#ff3e00" d="M138,23.5c7.9,11.1,11,24.8,8.6,38.2-1.1,6.3-3.6,12.3-7.1,17.7,5.2,9.8,6.9,21.1,4.9,32-2.4,13.1-10.1,24.6-21.4,31.7l-41.2,26.3c-23.5,15-56,8-72.4-15.6C1.5,142.8-1.6,129,.8,115.6c1.1-6.3,3.6-12.3,7.1-17.7-5.2-9.8-6.9-21.1-4.9-32,2.4-13.1,10.1-24.7,21.4-31.7L65.6,7.9C89.1-7.1,121.5-.1,138,23.5"/>
  <path fill="#fff" d="M61.5,156.1c3-.8,5.8-2,8.4-3.7l41.2-26.3c6.8-4.3,11.5-11.2,12.9-19.1,1.4-8-.4-16.3-5.2-23-7.8-11.3-21.9-16.5-35.2-13.1-3,.8-5.8,2-8.4,3.7l-15.8,10c-.8.5-1.6.9-2.5,1.1-4,1-8.3-.5-10.6-3.9-1.4-2-2-4.5-1.6-6.9s1.8-4.5,3.9-5.7l41.2-26.3c.8-.5,1.6-.9,2.5-1.1,4-1,8.3.5,10.6,3.9,1.3,1.8,1.9,4,1.7,6.1v1.5c0,0,1.4.5,1.4.5,5.8,1.8,11.3,4.5,16.2,8.1l2.1,1.6.8-2.4c.4-1.3.7-2.6,1-3.9,1.4-8-.4-16.3-5.2-23-7.8-11.3-21.9-16.5-35.2-13.1-3,.8-5.8,2-8.4,3.7l-41.2,26.3c-6.8,4.3-11.5,11.2-12.9,19.1-1.4,8,.4,16.3,5.2,23,7.8,11.3,21.9,16.5,35.2,13.1,3-.8,5.8-2,8.4-3.7l15.8-10.1c.8-.5,1.6-.9,2.5-1.1,4-1,8.3.5,10.6,3.9,1.4,2,2,4.5,1.6,6.9s-1.8,4.5-3.9,5.8l-41.2,26.3c-.8.5-1.6.9-2.5,1.1-4,1-8.3-.5-10.6-3.9-1.3-1.8-1.9-4-1.7-6.1v-1.5c0,0-1.4-.5-1.4-.5-5.8-1.8-11.3-4.5-16.2-8.1l-2.1-1.6-.8,2.4c-.4,1.3-.7,2.6-1,3.9-1.4,8,.4,16.3,5.2,23,7.8,11.3,21.9,16.5,35.2,13.1"/>
</svg>