<svg xmlns="http://www.w3.org/2000/svg" viewBox="0 0 1000 1000">
  <rect fill="#f43f5e" width="1000" height="1000"/>
  <path fill="#fff" d="M1000,469.6c-2.3-30.5-6.4-65.9-12.4-106.1-65.1,18.8-119.1,32.7-161.9,41.6,22.1-34,59.7-98.5,112.6-193.6-44.1-8.1-86.9-14-128.3-18-33.1,60.2-68.3,123.2-105.4,188.9-6.6-34.2-19.3-64.8-38.3-91.9-29.6-42.2-67.3-62.8-113.1-61.8-47.5.7-86.7,23.2-117.6,67.6-31,44.3-46.6,96.2-46.9,155.7v4.1c-12.8-3.5-26.3-5.1-40.5-4.8,43.4-56.4,56.5-107,39.3-151.8C331,185.7,201.8,192.6,0,320c47.7,220.4,84.3,399.2,109.6,536.4,204.3-56.9,327.7-123.8,370.1-200.7,16.2,7.7,34.4,11.4,54.6,11.1,46.6-.8,87.4-23.4,122.5-67.8,15-19,26.8-39.4,35.4-61.2,30.9-6.6,66.5-15.1,106.8-25.4,1.8,20.9,6.1,63.2,12.6,126.8,52.1-19.2,93.2-31.1,123.2-35.9-6.3-33.9-11.5-72.3-15.7-115l80.8-18.7h0ZM194.7,490.8c-6.5-29.8-14.3-65.7-23.4-107.6,45.1-25.7,68.9-18.5,71.4,21.5,1.9,35.7-14.1,64.5-48.1,86.1h0ZM234.2,679.3c-4.5-22.5-10.2-50.1-17.1-82.9,61.6-31.6,95.9-37.1,103-16.4,17,40.2-11.6,73.2-85.9,99.2h0ZM600.6,516.3c-13,25.3-30.8,40.2-53.6,44.6-26.2,1.8-41.8-32.5-46.7-103,.6-53.9,17.3-87.8,50.1-101.6,2-.4,4.1-.4,6.1.2,23.9,9.1,40.7,32.6,50.3,70.6,6.4,36,4.3,65.7-6.3,89.1h.1Z"/>
</svg>